<svg id="Lager_1" data-name="Lager 1" xmlns="http://www.w3.org/2000/svg" viewBox="0 0 419.95 52.91"><defs><style>.cls-1{fill:none;stroke:#fff;stroke-miterlimit:10;}.cls-2{fill:#fff;}</style></defs><title>logga2</title><path class="cls-1" d="M522.16,255.09h23.21A9.41,9.41,0,0,1,552.3,258a9.56,9.56,0,0,1,2.91,7v3.75a9.58,9.58,0,0,1-2.89,7,9.44,9.44,0,0,1-7,2.91h-4.18l13.4,23.05a3.87,3.87,0,0,1,.62,2,3,3,0,0,1-1,2.28,3.28,3.28,0,0,1-2.31,1,3.2,3.2,0,0,1-3-1.75l-15.36-26.57H528.8v25a3.09,3.09,0,0,1-1,2.32,3.29,3.29,0,0,1-2.36,1,3.16,3.16,0,0,1-2.33-1m5.61-33.92h16.64a3.28,3.28,0,0,0,3.28-3.28V265a3.26,3.26,0,0,0-3.28-3.28H528.73Z" transform="translate(-522.16 -254.59)"/><path class="cls-1" d="M571.32,277a9.14,9.14,0,0,1,2.52-3.4l2.74-2.15a9.26,9.26,0,0,1,6-2.19h9.22a9.51,9.51,0,0,1,6.57,2.9l2.46,2.34q2.66,2.38,2.65,7.11v7.93a3.33,3.33,0,0,1-3.28,3.28H577v1.91a3.58,3.58,0,0,0,1.44,2.86l1.92,1.6a5,5,0,0,0,3,1.21h16.87a3.21,3.21,0,0,1,2.31.95,3.22,3.22,0,0,1,0,4.63,3.2,3.2,0,0,1-2.29,1h-17.3a10.22,10.22,0,0,1-3.62-.72,9.5,9.5,0,0,1-2.79-1.51l-2.93-2.57a9.67,9.67,0,0,1-3.2-6.65m6.72-14.41v5.08H597v-4.57a3.51,3.51,0,0,0-1.13-2.81l-1.92-1.68a4.4,4.4,0,0,0-2.65-1.21H583a4.21,4.21,0,0,0-2.77,1.05l-1.91,1.6A3,3,0,0,0,577.05,281.14Z" transform="translate(-522.16 -254.59)"/><path class="cls-1" d="M625.29,275.87h-3.36a3.2,3.2,0,0,1-2.32-.94,3.3,3.3,0,0,1,2.32-5.63h3.44v-8a3.24,3.24,0,0,1,3.28-3.28,3.15,3.15,0,0,1,2.28,1,3.11,3.11,0,0,1,1,2.31v8h13.2a3.33,3.33,0,0,1,3.28,3.29,3.13,3.13,0,0,1-1,2.32,3.18,3.18,0,0,1-2.31,1H631.85v21.29a3.1,3.1,0,0,0,1,2.3,3.26,3.26,0,0,0,2.36,1h6.41a3.45,3.45,0,0,0,3.47-2.83c.58-1.89,1.68-2.84,3.32-2.84a3.13,3.13,0,0,1,2.37,1,3.35,3.35,0,0,1,.92,2.4c0,2-.94,3.95-2.8,5.92a9.38,9.38,0,0,1-7.13,2.95h-6.56a9.58,9.58,0,0,1-7-2.89" transform="translate(-522.16 -254.59)"/><path class="cls-1" d="M668,270.22a3.25,3.25,0,0,1,4.65,0,3.28,3.28,0,0,1,1,2.39v4.1l5.35-4.57a10.15,10.15,0,0,1,6.49-2.82h4.8a9.88,9.88,0,0,1,9.84,9.85v1.76a3.31,3.31,0,0,1-1,2.38,3.28,3.28,0,0,1-5.61-2.31v-1.83a3.26,3.26,0,0,0-3.28-3.28H686a4.89,4.89,0,0,0-3,1.44l-9.34,8.09v18.32a3.12,3.12,0,0,1-1,2.32,3.27,3.27,0,0,1-5.58-2.32" transform="translate(-522.16 -254.59)"/><path class="cls-1" d="M770.25,275.87h-3.36a3.2,3.2,0,0,1-2.32-.94,3.3,3.3,0,0,1,2.32-5.63h3.44v-8a3.25,3.25,0,0,1,5.56-2.31,3.11,3.11,0,0,1,1,2.31v8h13.2a3.29,3.29,0,0,1,0,6.57H776.81v21.29a3.1,3.1,0,0,0,1,2.3,3.26,3.26,0,0,0,2.36,1h6.41a3.45,3.45,0,0,0,3.47-2.83c.58-1.89,1.68-2.84,3.33-2.84a3.12,3.12,0,0,1,2.36,1,3.35,3.35,0,0,1,.92,2.4c0,2-.94,3.95-2.8,5.92a9.36,9.36,0,0,1-7.13,2.95h-6.56a9.58,9.58,0,0,1-7-2.89" transform="translate(-522.16 -254.59)"/><path class="cls-1" d="M812.93,277a8.93,8.93,0,0,1,2.52-3.4l2.73-2.15a9.26,9.26,0,0,1,6-2.19h9.22a9.51,9.51,0,0,1,6.56,2.9l2.46,2.34q2.65,2.38,2.65,7.11v7.93a3.33,3.33,0,0,1-3.28,3.28h-23.2v1.91a3.57,3.57,0,0,0,1.45,2.86l1.91,1.6a5,5,0,0,0,3,1.21h16.87a3.21,3.21,0,0,1,2.31.95,3.22,3.22,0,0,1,0,4.63,3.2,3.2,0,0,1-2.29,1h-17.3a10.12,10.12,0,0,1-3.61-.72,9.45,9.45,0,0,1-2.8-1.51l-2.93-2.57a8.4,8.4,0,0,1-2.28-3.05,8.56,8.56,0,0,1-.92-3.6m6.72-14.41v5.08h19.92v-4.57a3.51,3.51,0,0,0-1.13-2.81l-1.92-1.68a4.4,4.4,0,0,0-2.65-1.21h-8.24a4.21,4.21,0,0,0-2.78,1.05l-1.91,1.6A3,3,0,0,0,818.65,281.14Z" transform="translate(-522.16 -254.59)"/><path class="cls-1" d="M863.84,276.53l5.75-5a9.19,9.19,0,0,1,5.93-2.27h14.73a3.3,3.3,0,0,1,2.32,5.63,3.2,3.2,0,0,1-2.32.94h-14.1a3.83,3.83,0,0,0-2.54,1.05l-5.27,4.49a3.65,3.65,0,0,0-1.29,2.93v8a2.8,2.8,0,0,0,1,2.19l5.78,4.92a4.2,4.2,0,0,0,2.89,1h13.44a3.21,3.21,0,0,1,2.31.95,3.28,3.28,0,0,1-2.31,5.61h-14a9.4,9.4,0,0,1-6.33-2.23l-6.37-5.54" transform="translate(-522.16 -254.59)"/><path class="cls-1" d="M908.57,258.37a3.06,3.06,0,0,1,1-2.27,3.22,3.22,0,0,1,2.32-.94,3.26,3.26,0,0,1,3.28,3.29V275l5.28-3.44a12.39,12.39,0,0,1,6.4-2.27h4.07a9.45,9.45,0,0,1,6.91,2.88,9.86,9.86,0,0,1,3,7l.82,24.57a3,3,0,0,1-.94,2.32,3.22,3.22,0,0,1-2.34,1,3,3,0,0,1-2.31-1,3.42,3.42,0,0,1-1-2.28l-.82-24.65a3.27,3.27,0,0,0-1-2.3,3.2,3.2,0,0,0-2.34-1H927.2a5.09,5.09,0,0,0-2.73,1l-9.34,6.09v20.86a3.28,3.28,0,0,1-5.6,2.32" transform="translate(-522.16 -254.59)"/><path class="cls-2" d="M733.23,272.08a17.79,17.79,0,0,0-8.78,3.44,17.52,17.52,0,0,0,8,31.34,21.66,21.66,0,0,0,5.09,0,17.62,17.62,0,0,0,14.8-14.79,21.67,21.67,0,0,0,0-5.09,17.58,17.58,0,0,0-19.08-14.9Zm2.61.84c0,.06-8.72,15.34-8.93,15.58s-.64-.81-2.72-4.4l-2.6-4.52.36-.47a20.69,20.69,0,0,1,2.74-2.71,16.84,16.84,0,0,1,10.38-3.54A3,3,0,0,1,735.84,272.92Zm2.42.27a16.69,16.69,0,0,1,10.54,7.05,7.36,7.36,0,0,1,.93,1.64s-4.08,0-9,0l-9,0,2.51-4.34,2.58-4.45C736.92,272.94,737.1,273,738.26,273.19Zm-12.61,15.13c2.5,4.34,4.56,7.9,4.56,7.93s-2.37,0-5.26,0h-5.24l-.32-.82a16.66,16.66,0,0,1-.07-11.7,16.86,16.86,0,0,1,1.71-3.34S723.14,284,725.65,288.32Zm15-2.21c1.07,1.85,1.93,3.4,1.91,3.45s-.88,1.6-1.93,3.42l-1.92,3.31h-7.46L729.32,293c-1.06-1.82-1.92-3.37-1.92-3.45s.86-1.63,1.92-3.45l1.91-3.32h7.47Zm9.88-2.58A16.85,16.85,0,0,1,751,294c-.14.5-.37,1.19-.51,1.55a21.09,21.09,0,0,1-1.45,2.82l-.19.24-4.55-7.87c-2.5-4.33-4.55-7.9-4.57-7.94s2.27-.08,5.23-.08h5.25ZM745.78,295l2.56,4.45-.36.46a17.24,17.24,0,0,1-1.25,1.36,16.51,16.51,0,0,1-9.39,4.72,16.08,16.08,0,0,1-3.25.11s4-7.13,5.23-9.17l1.79-3.13c2.06-3.58,2-3.41,2-3.33S744.37,292.57,745.78,295Zm-8.59,3.86c-.56,1-1.71,3-2.56,4.44S733,306,733,306a7.6,7.6,0,0,1-1.23-.18,16.72,16.72,0,0,1-10.55-7,11.84,11.84,0,0,1-1-1.71s4.06-.06,9-.06h9Z" transform="translate(-522.16 -254.59)"/></svg>